<svg xmlns="http://www.w3.org/2000/svg" viewBox="0 0 160.43 30" width="160.43" height="30"><path d="M133.91,17.52l4.46-7.65h0l4.46,7.65ZM84.58,12.75H80V7.86h4.54c2.51,0,4.54,1.1,4.54,2.45s-2,2.45-4.54,2.45m-67,4.77,4.46-7.65h0l4.46,7.65Zm142.46,8.16h0L144,2.1h0C143.09.84,140.86,0,138.37,0s-4.72.84-5.59,2.1h0L119.31,21.82h-8.12V3.21c0-1.77-2.66-3.21-6-3.21s-6,1.44-6,3.21v2.4C96.55,2.28,91,0,84.58,0H74.09c-3.29,0-6,1.44-6,3.21V23.8a7.39,7.39,0,0,0-5.36-2h-8.2V3.21c0-1.77-2.67-3.21-6-3.21s-6,1.44-6,3.21V24.1l-15-22h0C26.78.84,24.55,0,22.06,0s-4.73.84-5.59,2.1h0L.37,25.68h0A2,2,0,0,0,0,26.79C0,28.56,2.67,30,6,30c2.6,0,4.9-.91,5.68-2.25l1.82-3.11H30.67l1.82,3.11c.78,1.34,3.08,2.25,5.68,2.25a7.71,7.71,0,0,0,5.23-1.68A7.7,7.7,0,0,0,48.63,30H62.78a7.09,7.09,0,0,0,5.61-2.28c.74,1.32,3,2.28,5.7,2.28,3.29,0,6-1.44,6-3.21V20.61h4.54c6.41,0,12-2.28,14.71-5.61V26.79c0,1.77,2.67,3.21,6,3.21h17c2.6,0,4.9-.91,5.68-2.25l1.82-3.11H147l1.82,3.11c.78,1.34,3.08,2.25,5.68,2.25,3.29,0,6-1.44,6-3.21a2,2,0,0,0-.37-1.11" fill="#004d90"/></svg>
